<svg width="344" height="325" xmlns="http://www.w3.org/2000/svg" xmlns:xlink="http://www.w3.org/1999/xlink" xml:space="preserve" overflow="hidden"><style>svg { color: #232F3E; } @media (prefers-color-scheme: dark) { svg { color: #FFFFFF; } }</style><defs><clipPath id="clip0"><rect x="2520" y="584" width="169" height="224"/></clipPath></defs><g transform="translate(-2346 -495)"><g><g><g><g><path d="M306.576 118.696 283.788 118.696 283.788 141.449" stroke="#7B27FF" stroke-width="6.84322" stroke-linecap="butt" stroke-linejoin="round" stroke-miterlimit="4" stroke-opacity="1" fill="none" fill-rule="nonzero" transform="matrix(1.00241 0 0 1 2349.74 495)"/><path d="M211.558 51.5979C211.387 50.1266 211.285 48.5869 211.285 47.0472 211.285 33.9766 220.146 18.9557 232.841 13.5838 249.128 6.70636 263.977 11.9072 273.763 21.7272 278.28 26.278 281.599 31.9921 283.823 38.1852L283.823 38.1852C292.103 26.9623 310.648 30.4866 312.017 50.8109L312.017 51.1189C320.4 52.556 335.25 58.5096 335.25 77.1916 335.25 101.314 311.298 103.264 311.298 103.264L218.23 103.162C204.373 103.162 192.534 92.4862 191.884 78.6286 191.884 78.0812 191.85 77.5337 191.85 76.9863 191.85 61.0415 202.286 53.993 211.558 51.5979Z" stroke="#7B27FF" stroke-width="6.84322" stroke-linecap="butt" stroke-linejoin="round" stroke-miterlimit="4" stroke-opacity="1" fill="none" fill-rule="nonzero" transform="matrix(1.00241 0 0 1 2349.74 495)"/><g clip-path="url(#clip0)"><path d="M300.965 204.783C300.965 249.418 264.781 285.602 220.146 285.602 175.512 285.602 139.328 249.418 139.328 204.783 139.328 160.149 175.512 123.965 220.146 123.965 264.781 123.965 300.965 160.149 300.965 204.783Z" stroke="#7B27FF" stroke-width="6.84322" stroke-linecap="butt" stroke-linejoin="round" stroke-miterlimit="4" stroke-opacity="1" fill="none" fill-rule="nonzero" transform="matrix(1.00241 0 0 1 2349.74 495)"/><path d="M255.526 240.163 220.146 204.783 220.146 169.438" stroke="#7B27FF" stroke-width="6.84322" stroke-linecap="butt" stroke-linejoin="round" stroke-miterlimit="4" stroke-opacity="1" fill="none" fill-rule="nonzero" transform="matrix(1.00241 0 0 1 2349.74 495)"/><path d="M220.146 139.123 220.146 149.216" stroke="#7B27FF" stroke-width="6.84322" stroke-linecap="butt" stroke-linejoin="round" stroke-miterlimit="4" stroke-opacity="1" fill="none" fill-rule="nonzero" transform="matrix(1.00241 0 0 1 2349.74 495)"/><path d="M285.807 204.783 275.713 204.783" stroke="#7B27FF" stroke-width="6.84322" stroke-linecap="butt" stroke-linejoin="round" stroke-miterlimit="4" stroke-opacity="1" fill="none" fill-rule="nonzero" transform="matrix(1.00241 0 0 1 2349.74 495)"/><path d="M220.146 270.478 220.146 260.385" stroke="#7B27FF" stroke-width="6.84322" stroke-linecap="butt" stroke-linejoin="round" stroke-miterlimit="4" stroke-opacity="1" fill="none" fill-rule="nonzero" transform="matrix(1.00241 0 0 1 2349.74 495)"/><path d="M154.452 204.783 164.58 204.783" stroke="#7B27FF" stroke-width="6.84322" stroke-linecap="butt" stroke-linejoin="round" stroke-miterlimit="4" stroke-opacity="1" fill="none" fill-rule="nonzero" transform="matrix(1.00241 0 0 1 2349.74 495)"/></g><path d="M220.146 311.538C279.101 311.538 326.901 263.738 326.901 204.783 326.901 170.088 310.374 139.294 284.747 119.791" stroke="#7B27FF" stroke-width="6.84322" stroke-linecap="butt" stroke-linejoin="round" stroke-miterlimit="4" stroke-opacity="1" fill="none" fill-rule="nonzero" transform="matrix(1.00241 0 0 1 2349.74 495)"/><path d="M170.807 20.9403 170.807 301.444 117.122 319.579 45.1311 277.219 45.1311 220.557 3.42161 195.99 3.42161 126.394 44.6178 101.998 44.6178 45.1995 117.293 3.42161 170.807 20.9403Z" stroke="currentColor" stroke-width="6.84322" stroke-linecap="butt" stroke-linejoin="round" stroke-miterlimit="4" stroke-opacity="1" fill="none" fill-rule="nonzero" transform="matrix(1.00241 0 0 1 2349.74 495)"/><path d="M87.08 79.4156 87.08 20.9745" stroke="currentColor" stroke-width="6.84322" stroke-linecap="butt" stroke-linejoin="round" stroke-miterlimit="4" stroke-opacity="1" fill="none" fill-rule="nonzero" transform="matrix(1.00241 0 0 1 2349.74 495)"/><path d="M81.2975 249.299 172.039 195.853" stroke="currentColor" stroke-width="6.84322" stroke-linecap="butt" stroke-linejoin="round" stroke-miterlimit="4" stroke-opacity="1" fill="none" fill-rule="nonzero" transform="matrix(1.00241 0 0 1 2349.74 495)"/><path d="M134.469 271.813 87.9354 301.17" stroke="currentColor" stroke-width="6.84322" stroke-linecap="butt" stroke-linejoin="round" stroke-miterlimit="4" stroke-opacity="1" fill="none" fill-rule="nonzero" transform="matrix(1.00241 0 0 1 2349.74 495)"/><path d="M82.5293 195.853 43.7282 220.283" stroke="currentColor" stroke-width="6.84322" stroke-linecap="butt" stroke-linejoin="round" stroke-miterlimit="4" stroke-opacity="1" fill="none" fill-rule="nonzero" transform="matrix(1.00241 0 0 1 2349.74 495)"/><path d="M122.254 61.8627 122.254 101.998 87.08 126.736 44.6178 101.998" stroke="currentColor" stroke-width="6.84322" stroke-linecap="butt" stroke-linejoin="round" stroke-miterlimit="4" stroke-opacity="1" fill="none" fill-rule="nonzero" transform="matrix(1.00241 0 0 1 2349.74 495)"/><path d="M57.1751 172.826 87.08 154.862 87.08 128.31" stroke="currentColor" stroke-width="6.84322" stroke-linecap="butt" stroke-linejoin="round" stroke-miterlimit="4" stroke-opacity="1" fill="none" fill-rule="nonzero" transform="matrix(1.00241 0 0 1 2349.74 495)"/><path d="M117.019 172.826 87.08 154.862" stroke="currentColor" stroke-width="6.84322" stroke-linecap="butt" stroke-linejoin="round" stroke-miterlimit="4" stroke-opacity="1" fill="none" fill-rule="nonzero" transform="matrix(1.00241 0 0 1 2349.74 495)"/></g></g></g></g></g></svg>