<svg width="394" height="316" xmlns="http://www.w3.org/2000/svg" xmlns:xlink="http://www.w3.org/1999/xlink" xml:space="preserve" overflow="hidden"><style>svg { color: #232F3E; } @media (prefers-color-scheme: dark) { svg { color: #FFFFFF; } }</style><defs><clipPath id="clip0"><rect x="438" y="1113" width="227" height="306"/></clipPath></defs><g transform="translate(-275 -1109)"><g><g><g><g><g clip-path="url(#clip0)"><path d="M296.628 210.773 296.628 62.7501C296.628 59.264 293.483 56.6665 290.066 57.2817L281.897 58.8197C257.118 63.4337 226.461 54.7526 211.936 32.7422 197.649 54.5817 170.102 63.4337 145.323 58.8197L133.635 57.0425C130.285 56.5298 127.243 59.1273 127.243 62.5451L127.243 218.088C127.243 220.104 128.337 221.95 130.08 222.941L209.201 267.269C210.876 268.226 212.927 268.226 214.636 267.269L254.692 244.849" stroke="#7B27FF" stroke-width="6.83553" stroke-linecap="butt" stroke-linejoin="round" stroke-miterlimit="4" stroke-opacity="1" fill="none" fill-rule="nonzero" transform="matrix(1.00266 0 0 1 276.882 1113)"/><path d="M317.715 212.038C326.7 212.038 333.984 219.322 333.984 228.307L333.984 228.546C333.984 237.531 326.7 244.814 317.715 244.814L256.674 244.814C247.689 244.814 240.406 237.531 240.406 228.546L240.406 228.307C240.406 219.322 247.689 212.038 256.674 212.038Z" stroke="#7B27FF" stroke-width="6.83553" stroke-linecap="butt" stroke-linejoin="round" stroke-miterlimit="4" stroke-opacity="1" fill="none" fill-rule="nonzero" transform="matrix(1.00266 0 0 1 276.882 1113)"/><path d="M173.896 180.526C173.007 184.183 172.529 188.011 172.529 191.976L251.753 191.976C251.753 167.71 234.014 148.023 212.141 148.023 202.81 148.023 194.266 151.578 187.499 157.559" stroke="#7B27FF" stroke-width="6.83553" stroke-linecap="butt" stroke-linejoin="round" stroke-miterlimit="4" stroke-opacity="1" fill="none" fill-rule="nonzero" transform="matrix(1.00266 0 0 1 276.882 1113)"/><path d="M175.946 175.229C176.972 172.255 179.159 167.094 182.953 162.515" stroke="#7B27FF" stroke-width="6.83553" stroke-linecap="butt" stroke-linejoin="round" stroke-miterlimit="4" stroke-opacity="1" fill="none" fill-rule="nonzero" transform="matrix(1.00266 0 0 1 276.882 1113)"/><path d="M235.86 124.338C235.86 137.419 225.256 148.023 212.175 148.023 199.094 148.023 188.49 137.419 188.49 124.338 188.49 111.257 199.094 100.653 212.175 100.653 225.256 100.653 235.86 111.257 235.86 124.338Z" stroke="#7B27FF" stroke-width="6.83553" stroke-linecap="butt" stroke-linejoin="round" stroke-miterlimit="4" stroke-opacity="1" fill="none" fill-rule="nonzero" transform="matrix(1.00266 0 0 1 276.882 1113)"/><path d="M325.303 228.409C325.303 233.676 321.034 237.945 315.767 237.945 310.501 237.945 306.232 233.676 306.232 228.409 306.232 223.143 310.501 218.874 315.767 218.874 321.034 218.874 325.303 223.143 325.303 228.409Z" fill="#7B27FF" fill-rule="nonzero" fill-opacity="1" transform="matrix(1.00266 0 0 1 276.882 1113)"/><path d="M267.577 271.131C267.577 276.398 263.308 280.667 258.041 280.667 252.775 280.667 248.506 276.398 248.506 271.131 248.506 265.865 252.775 261.596 258.041 261.596 263.307 261.596 267.577 265.865 267.577 271.131Z" fill="#7B27FF" fill-rule="nonzero" fill-opacity="1" transform="matrix(1.00266 0 0 1 276.882 1113)"/><path d="M317.715 254.555C326.7 254.555 333.984 261.839 333.984 270.824L333.984 271.063C333.984 280.048 326.7 287.331 317.715 287.331L256.674 287.331C247.689 287.331 240.406 280.048 240.406 271.063L240.406 270.824C240.406 261.839 247.689 254.555 256.674 254.555Z" stroke="#7B27FF" stroke-width="6.83553" stroke-linecap="butt" stroke-linejoin="round" stroke-miterlimit="4" stroke-opacity="1" fill="none" fill-rule="nonzero" transform="matrix(1.00266 0 0 1 276.882 1113)"/></g><path d="M161.148 24.1636 161.148 288.493 110.565 305.582 42.722 265.663 42.722 212.277 3.41776 189.139 3.41776 123.552 42.2436 100.551 42.2436 47.0284 110.736 7.65579 161.148 24.1636Z" stroke="currentColor" stroke-width="6.83553" stroke-linecap="butt" stroke-linejoin="round" stroke-miterlimit="4" stroke-opacity="1" fill="none" fill-rule="nonzero" transform="matrix(1.00266 0 0 1 276.882 1113)"/><path d="M82.2656 79.2579 82.2656 24.1978" stroke="currentColor" stroke-width="6.83553" stroke-linecap="butt" stroke-linejoin="round" stroke-miterlimit="4" stroke-opacity="1" fill="none" fill-rule="nonzero" transform="matrix(1.00266 0 0 1 276.882 1113)"/><path d="M76.7972 239.346 162.31 188.968" stroke="currentColor" stroke-width="6.83553" stroke-linecap="butt" stroke-linejoin="round" stroke-miterlimit="4" stroke-opacity="1" fill="none" fill-rule="nonzero" transform="matrix(1.00266 0 0 1 276.882 1113)"/><path d="M126.936 260.604 83.0517 288.254" stroke="currentColor" stroke-width="6.83553" stroke-linecap="butt" stroke-linejoin="round" stroke-miterlimit="4" stroke-opacity="1" fill="none" fill-rule="nonzero" transform="matrix(1.00266 0 0 1 276.882 1113)"/><path d="M77.9592 188.968 41.3891 212.038" stroke="currentColor" stroke-width="6.83553" stroke-linecap="butt" stroke-linejoin="round" stroke-miterlimit="4" stroke-opacity="1" fill="none" fill-rule="nonzero" transform="matrix(1.00266 0 0 1 276.882 1113)"/><path d="M115.418 62.716 115.418 100.551 82.2656 123.86 42.2436 100.551" stroke="currentColor" stroke-width="6.83553" stroke-linecap="butt" stroke-linejoin="round" stroke-miterlimit="4" stroke-opacity="1" fill="none" fill-rule="nonzero" transform="matrix(1.00266 0 0 1 276.882 1113)"/><path d="M54.069 167.3 82.2656 150.347 82.2656 125.329" stroke="currentColor" stroke-width="6.83553" stroke-linecap="butt" stroke-linejoin="round" stroke-miterlimit="4" stroke-opacity="1" fill="none" fill-rule="nonzero" transform="matrix(1.00266 0 0 1 276.882 1113)"/><path d="M110.462 167.3 82.2656 150.347" stroke="currentColor" stroke-width="6.83553" stroke-linecap="butt" stroke-linejoin="round" stroke-miterlimit="4" stroke-opacity="1" fill="none" fill-rule="nonzero" transform="matrix(1.00266 0 0 1 276.882 1113)"/></g></g></g></g></g></svg>