<svg width="339" height="339" xmlns="http://www.w3.org/2000/svg" xmlns:xlink="http://www.w3.org/1999/xlink" xml:space="preserve" overflow="hidden"><style>svg { color: #232F3E; } @media (prefers-color-scheme: dark) { svg { color: #FFFFFF; } }</style><g transform="translate(-293 -1801)"><g><g><g><g><path d="M464.1 1899.23 554.426 1899.23 554.426 1878.91" stroke="#7B27FF" stroke-width="6.85326" stroke-linecap="butt" stroke-linejoin="round" stroke-miterlimit="4" stroke-opacity="1" fill="none" fill-rule="nonzero"/><path d="M464.1 2103.11 554.426 2103.11 554.426 2082.79" stroke="#7B27FF" stroke-width="6.85326" stroke-linecap="butt" stroke-linejoin="round" stroke-miterlimit="4" stroke-opacity="1" fill="none" fill-rule="nonzero"/><path d="M464.1 1996.95 592.735 1996.95 592.735 1976.63" stroke="#7B27FF" stroke-width="6.85326" stroke-linecap="butt" stroke-linejoin="round" stroke-miterlimit="4" stroke-opacity="1" fill="none" fill-rule="nonzero"/><path d="M301.026 2008.43 301.026 1972.28 301.026 1936.13 301.026 2008.43Z" stroke="#7B27FF" stroke-width="6.85326" stroke-linecap="butt" stroke-linejoin="round" stroke-miterlimit="4" stroke-opacity="1" fill="none" fill-rule="nonzero"/><path d="M382.58 1972.28 382.58 1929.72 423.323 1909.33 423.323 1868.59" stroke="currentColor" stroke-width="6.85326" stroke-linecap="butt" stroke-linejoin="round" stroke-miterlimit="4" stroke-opacity="1" fill="none" fill-rule="nonzero"/><path d="M382.58 1929.72 341.803 1909.33" stroke="currentColor" stroke-width="6.85326" stroke-linecap="butt" stroke-linejoin="round" stroke-miterlimit="4" stroke-opacity="1" fill="none" fill-rule="nonzero"/><path d="M382.58 1882.16 382.58 1832.1" stroke="currentColor" stroke-width="6.85326" stroke-linecap="butt" stroke-linejoin="round" stroke-miterlimit="4" stroke-opacity="1" fill="none" fill-rule="nonzero"/><path d="M341.803 2038.45 382.58 2011.28" stroke="currentColor" stroke-width="6.85326" stroke-linecap="butt" stroke-linejoin="round" stroke-miterlimit="4" stroke-opacity="1" fill="none" fill-rule="nonzero"/><path d="M381.655 2109.9 418.32 2088.34" stroke="currentColor" stroke-width="6.85326" stroke-linecap="butt" stroke-linejoin="round" stroke-miterlimit="4" stroke-opacity="1" fill="none" fill-rule="nonzero"/><path d="M375.761 2058.84 464.1 2011.28" stroke="currentColor" stroke-width="6.85326" stroke-linecap="butt" stroke-linejoin="round" stroke-miterlimit="4" stroke-opacity="1" fill="none" fill-rule="nonzero"/><path d="M341.803 1997.67 382.58 1970.5" stroke="currentColor" stroke-width="6.85326" stroke-linecap="butt" stroke-linejoin="round" stroke-miterlimit="4" stroke-opacity="1" fill="none" fill-rule="nonzero"/><path d="M464.1 1970.5 464.1 2111.75 423.323 2133.57 341.803 2086.01 341.803 2038.45 301.026 2011.28 301.026 1972.28 301.026 1929.72 341.803 1908.99 341.803 1854.99 423.323 1807.43 464.1 1834.6 464.1 1972.28" stroke="currentColor" stroke-width="6.85326" stroke-linecap="butt" stroke-linejoin="round" stroke-miterlimit="4" stroke-opacity="1" fill="none" fill-rule="nonzero"/><path d="M423.323 1997.67 382.58 1970.5" stroke="currentColor" stroke-width="6.85326" stroke-linecap="butt" stroke-linejoin="round" stroke-miterlimit="4" stroke-opacity="1" fill="none" fill-rule="nonzero"/><path d="M587.664 1865.03 587.664 1826.62 554.426 1807.43 521.187 1826.62 521.187 1865.03 554.426 1884.22 587.664 1865.03Z" stroke="#7B27FF" stroke-width="6.85326" stroke-linecap="butt" stroke-linejoin="round" stroke-miterlimit="4" stroke-opacity="1" fill="none" fill-rule="nonzero"/><path d="M521.187 1826.92 554.426 1846.11 587.664 1826.92" stroke="#7B27FF" stroke-width="6.85326" stroke-linecap="butt" stroke-linejoin="round" stroke-miterlimit="4" stroke-opacity="1" fill="none" fill-rule="nonzero"/><path d="M554.426 1846.11 554.426 1884.22" stroke="#7B27FF" stroke-width="6.85326" stroke-linecap="butt" stroke-linejoin="round" stroke-miterlimit="4" stroke-opacity="1" fill="none" fill-rule="nonzero"/><path d="M587.664 2072.17 587.664 2033.76 554.426 2014.57 521.187 2033.76 521.187 2072.17 554.426 2091.36 587.664 2072.17Z" stroke="#7B27FF" stroke-width="6.85326" stroke-linecap="butt" stroke-linejoin="round" stroke-miterlimit="4" stroke-opacity="1" fill="none" fill-rule="nonzero"/><path d="M521.187 2034.06 554.426 2053.25 587.664 2034.06" stroke="#7B27FF" stroke-width="6.85326" stroke-linecap="butt" stroke-linejoin="round" stroke-miterlimit="4" stroke-opacity="1" fill="none" fill-rule="nonzero"/><path d="M554.426 2053.25 554.426 2091.36" stroke="#7B27FF" stroke-width="6.85326" stroke-linecap="butt" stroke-linejoin="round" stroke-miterlimit="4" stroke-opacity="1" fill="none" fill-rule="nonzero"/><path d="M625.974 1962.38 625.974 1923.97 592.735 1904.78 559.463 1923.97 559.463 1962.38 592.735 1981.57 625.974 1962.38Z" stroke="#7B27FF" stroke-width="6.85326" stroke-linecap="butt" stroke-linejoin="round" stroke-miterlimit="4" stroke-opacity="1" fill="none" fill-rule="nonzero"/><path d="M559.463 1924.27 592.735 1943.46 625.974 1924.27" stroke="#7B27FF" stroke-width="6.85326" stroke-linecap="butt" stroke-linejoin="round" stroke-miterlimit="4" stroke-opacity="1" fill="none" fill-rule="nonzero"/><path d="M592.735 1943.46 592.735 1981.57" stroke="#7B27FF" stroke-width="6.85326" stroke-linecap="butt" stroke-linejoin="round" stroke-miterlimit="4" stroke-opacity="1" fill="none" fill-rule="nonzero"/></g></g></g></g></g></svg>