<svg width="403" height="316" xmlns="http://www.w3.org/2000/svg" xmlns:xlink="http://www.w3.org/1999/xlink" xml:space="preserve" overflow="hidden"><style>svg { color: #232F3E; } @media (prefers-color-scheme: dark) { svg { color: #FFFFFF; } }</style><defs><clipPath id="clip0"><rect x="1461" y="1186" width="238" height="277"/></clipPath></defs><g transform="translate(-1297 -1150)"><g><g><g><g><g clip-path="url(#clip0)"><path d="M156.17 248.771 156.17 95.4393" stroke="#7B27FF" stroke-width="6.83908" stroke-linecap="butt" stroke-linejoin="round" stroke-miterlimit="4" stroke-opacity="1" fill="none" fill-rule="nonzero" transform="matrix(1 0 0 1.00391 1300 1153.79)"/><path d="M121.838 95.4393 316.923 95.4393" stroke="#7B27FF" stroke-width="6.83908" stroke-linecap="butt" stroke-linejoin="round" stroke-miterlimit="4" stroke-opacity="1" fill="none" fill-rule="nonzero" transform="matrix(1 0 0 1.00391 1300 1153.79)"/><path d="M316.923 174.26 316.923 67.1255C316.923 64.2189 315.11 61.8936 312.854 61.8936L126.01 61.8936C123.753 61.8936 121.941 64.2531 121.941 67.1255L121.838 243.54C121.838 246.412 123.651 248.771 125.873 248.771L279.513 248.771" stroke="#7B27FF" stroke-width="6.83908" stroke-linecap="butt" stroke-linejoin="round" stroke-miterlimit="4" stroke-opacity="1" fill="none" fill-rule="nonzero" transform="matrix(1 0 0 1.00391 1300 1153.79)"/><path d="M259.885 78.6494 268.912 78.6494" stroke="#7B27FF" stroke-width="6.83908" stroke-linecap="butt" stroke-linejoin="round" stroke-miterlimit="4" stroke-opacity="1" fill="none" fill-rule="nonzero" transform="matrix(1 0 0 1.00391 1300 1153.79)"/><path d="M274.315 78.6494 283.343 78.6494" stroke="#7B27FF" stroke-width="6.83908" stroke-linecap="butt" stroke-linejoin="round" stroke-miterlimit="4" stroke-opacity="1" fill="none" fill-rule="nonzero" transform="matrix(1 0 0 1.00391 1300 1153.79)"/><path d="M288.78 78.6494 297.808 78.6494" stroke="#7B27FF" stroke-width="6.83908" stroke-linecap="butt" stroke-linejoin="round" stroke-miterlimit="4" stroke-opacity="1" fill="none" fill-rule="nonzero" transform="matrix(1 0 0 1.00391 1300 1153.79)"/><path d="M212.148 136.782 188.861 160.069 211.533 182.706" stroke="#7B27FF" stroke-width="6.83908" stroke-linecap="butt" stroke-linejoin="round" stroke-miterlimit="4" stroke-opacity="1" fill="none" fill-rule="nonzero" transform="matrix(1 0 0 1.00391 1300 1153.79)"/><path d="M247.472 122.659 219.329 196.863" stroke="#7B27FF" stroke-width="6.83908" stroke-linecap="butt" stroke-linejoin="round" stroke-miterlimit="4" stroke-opacity="1" fill="none" fill-rule="nonzero" transform="matrix(1 0 0 1.00391 1300 1153.79)"/><path d="M254.653 182.706 277.94 159.419 255.303 136.782" stroke="#7B27FF" stroke-width="6.83908" stroke-linecap="butt" stroke-linejoin="round" stroke-miterlimit="4" stroke-opacity="1" fill="none" fill-rule="nonzero" transform="matrix(1 0 0 1.00391 1300 1153.79)"/><path d="M280.847 213.071 336.859 213.071 336.859 268.707 280.847 268.707Z" stroke="#7B27FF" stroke-width="6.83908" stroke-linecap="butt" stroke-linejoin="round" stroke-miterlimit="4" stroke-opacity="1" fill="none" fill-rule="nonzero" transform="matrix(1 0 0 1.00391 1300 1153.79)"/><path d="M308.237 183.116 309.502 183.116C317.778 183.116 324.514 189.853 324.514 198.128L324.514 209.891C324.514 211.635 323.078 213.071 321.334 213.071L296.371 213.071C294.627 213.071 293.191 211.635 293.191 209.891L293.191 198.128C293.191 189.853 299.928 183.116 308.203 183.116Z" stroke="#7B27FF" stroke-width="6.83908" stroke-linecap="butt" stroke-linejoin="round" stroke-miterlimit="4" stroke-opacity="1" fill="none" fill-rule="nonzero" transform="matrix(1 0 0 1.00391 1300 1153.79)"/><path d="M315.179 233.828C315.179 237.322 312.347 240.154 308.853 240.154 305.359 240.154 302.527 237.322 302.527 233.828 302.527 230.334 305.359 227.502 308.853 227.502 312.347 227.502 315.179 230.334 315.179 233.828Z" stroke="#7B27FF" stroke-width="6.83908" stroke-linecap="butt" stroke-linejoin="round" stroke-miterlimit="4" stroke-opacity="1" fill="none" fill-rule="nonzero" transform="matrix(1 0 0 1.00391 1300 1153.79)"/><path d="M308.853 254.311 308.853 240.154" stroke="#7B27FF" stroke-width="6.83908" stroke-linecap="butt" stroke-linejoin="round" stroke-miterlimit="4" stroke-opacity="1" fill="none" fill-rule="nonzero" transform="matrix(1 0 0 1.00391 1300 1153.79)"/></g><path d="M161.915 20.0043 161.915 285.634 111.067 302.8 42.9152 262.689 42.9152 209.036 3.41954 185.784 3.41954 119.855 42.4365 96.7729 42.4365 42.9836 111.272 3.41954 161.915 20.0043Z" stroke="currentColor" stroke-width="6.83908" stroke-linecap="butt" stroke-linejoin="round" stroke-miterlimit="4" stroke-opacity="1" fill="none" fill-rule="nonzero" transform="matrix(1 0 0 1.00391 1300 1153.79)"/><path d="M82.6502 75.3666 82.6502 20.0385" stroke="currentColor" stroke-width="6.83908" stroke-linecap="butt" stroke-linejoin="round" stroke-miterlimit="4" stroke-opacity="1" fill="none" fill-rule="nonzero" transform="matrix(1 0 0 1.00391 1300 1153.79)"/><path d="M77.179 236.256 163.078 185.647" stroke="currentColor" stroke-width="6.83908" stroke-linecap="butt" stroke-linejoin="round" stroke-miterlimit="4" stroke-opacity="1" fill="none" fill-rule="nonzero" transform="matrix(1 0 0 1.00391 1300 1153.79)"/><path d="M127.515 257.594 83.4709 285.395" stroke="currentColor" stroke-width="6.83908" stroke-linecap="butt" stroke-linejoin="round" stroke-miterlimit="4" stroke-opacity="1" fill="none" fill-rule="nonzero" transform="matrix(1 0 0 1.00391 1300 1153.79)"/><path d="M78.3074 185.647 41.5816 208.797" stroke="currentColor" stroke-width="6.83908" stroke-linecap="butt" stroke-linejoin="round" stroke-miterlimit="4" stroke-opacity="1" fill="none" fill-rule="nonzero" transform="matrix(1 0 0 1.00391 1300 1153.79)"/><path d="M115.957 58.7477 115.957 96.7729 82.6502 120.197 42.4365 96.7729" stroke="currentColor" stroke-width="6.83908" stroke-linecap="butt" stroke-linejoin="round" stroke-miterlimit="4" stroke-opacity="1" fill="none" fill-rule="nonzero" transform="matrix(1 0 0 1.00391 1300 1153.79)"/><path d="M54.3023 163.83 82.6502 146.801 82.6502 121.667" stroke="currentColor" stroke-width="6.83908" stroke-linecap="butt" stroke-linejoin="round" stroke-miterlimit="4" stroke-opacity="1" fill="none" fill-rule="nonzero" transform="matrix(1 0 0 1.00391 1300 1153.79)"/><path d="M110.998 163.83 82.6502 146.801" stroke="currentColor" stroke-width="6.83908" stroke-linecap="butt" stroke-linejoin="round" stroke-miterlimit="4" stroke-opacity="1" fill="none" fill-rule="nonzero" transform="matrix(1 0 0 1.00391 1300 1153.79)"/></g></g></g></g></g></svg>