<svg width="385" height="330" xmlns="http://www.w3.org/2000/svg" xmlns:xlink="http://www.w3.org/1999/xlink" xml:space="preserve" overflow="hidden"><style>svg { color: #232F3E; } @media (prefers-color-scheme: dark) { svg { color: #FFFFFF; } }</style><defs><clipPath id="clip0"><rect x="3554" y="1172" width="206" height="271"/></clipPath></defs><g transform="translate(-3377 -1141)"><g><g><g><g><g clip-path="url(#clip0)"><path d="M166.245 264.941 166.245 101.512" stroke="#7B27FF" stroke-width="6.86822" stroke-linecap="butt" stroke-linejoin="round" stroke-miterlimit="4" stroke-opacity="1" fill="none" fill-rule="nonzero" transform="matrix(1.00139 0 0 1 3382.2 1145)"/><path d="M129.672 101.512 337.573 101.512" stroke="#7B27FF" stroke-width="6.86822" stroke-linecap="butt" stroke-linejoin="round" stroke-miterlimit="4" stroke-opacity="1" fill="none" fill-rule="nonzero" transform="matrix(1.00139 0 0 1 3382.2 1145)"/><path d="M333.246 264.907C335.65 264.907 337.573 262.4 337.573 259.31L337.573 71.3264C337.573 68.2357 335.615 65.7288 333.246 65.7288L134.102 65.7288C131.698 65.7288 129.775 68.2357 129.775 71.2921L129.672 259.344C129.672 262.4 131.595 264.907 133.965 264.941L333.246 264.941Z" stroke="#7B27FF" stroke-width="6.86822" stroke-linecap="butt" stroke-linejoin="round" stroke-miterlimit="4" stroke-opacity="1" fill="none" fill-rule="nonzero" transform="matrix(1.00139 0 0 1 3382.2 1145)"/><path d="M276.789 83.6205 286.405 83.6205" stroke="#7B27FF" stroke-width="6.86822" stroke-linecap="butt" stroke-linejoin="round" stroke-miterlimit="4" stroke-opacity="1" fill="none" fill-rule="nonzero" transform="matrix(1.00139 0 0 1 3382.2 1145)"/><path d="M292.174 83.6205 301.824 83.6205" stroke="#7B27FF" stroke-width="6.86822" stroke-linecap="butt" stroke-linejoin="round" stroke-miterlimit="4" stroke-opacity="1" fill="none" fill-rule="nonzero" transform="matrix(1.00139 0 0 1 3382.2 1145)"/><path d="M307.593 83.6205 317.209 83.6205" stroke="#7B27FF" stroke-width="6.86822" stroke-linecap="butt" stroke-linejoin="round" stroke-miterlimit="4" stroke-opacity="1" fill="none" fill-rule="nonzero" transform="matrix(1.00139 0 0 1 3382.2 1145)"/><path d="M307.593 183.21C307.593 214.902 281.901 240.594 250.209 240.594 218.517 240.594 192.825 214.902 192.825 183.21 192.825 151.517 218.517 125.826 250.209 125.826 281.901 125.826 307.593 151.517 307.593 183.21Z" stroke="#7B27FF" stroke-width="6.86822" stroke-linecap="butt" stroke-linejoin="round" stroke-miterlimit="4" stroke-opacity="1" fill="none" fill-rule="nonzero" transform="matrix(1.00139 0 0 1 3382.2 1145)"/><path d="M281.322 183.21C281.322 214.902 267.085 240.594 249.522 240.594 231.96 240.594 217.722 214.902 217.722 183.21 217.722 151.517 231.96 125.826 249.522 125.826 267.085 125.826 281.322 151.517 281.322 183.21Z" stroke="#7B27FF" stroke-width="6.86822" stroke-linecap="butt" stroke-linejoin="round" stroke-miterlimit="4" stroke-opacity="1" fill="none" fill-rule="nonzero" transform="matrix(1.00139 0 0 1 3382.2 1145)"/><path d="M192.86 182.523 307.009 182.523" stroke="#7B27FF" stroke-width="6.86822" stroke-linecap="butt" stroke-linejoin="round" stroke-miterlimit="4" stroke-opacity="1" fill="none" fill-rule="nonzero" transform="matrix(1.00139 0 0 1 3382.2 1145)"/><path d="M249.522 126.478 249.522 239.975" stroke="#7B27FF" stroke-width="6.86822" stroke-linecap="butt" stroke-linejoin="round" stroke-miterlimit="4" stroke-opacity="1" fill="none" fill-rule="nonzero" transform="matrix(1.00139 0 0 1 3382.2 1145)"/><path d="M250.209 125.86C281.906 125.86 307.593 151.547 307.593 183.244" stroke="#7B27FF" stroke-width="6.86822" stroke-linecap="butt" stroke-linejoin="round" stroke-miterlimit="4" stroke-opacity="1" fill="none" fill-rule="nonzero" transform="matrix(1.00139 0 0 1 3382.2 1145)"/></g><path d="M172.358 21.1198 172.358 304.228 118.202 322.566 45.5363 279.777 45.5363 222.599 3.43411 197.805 3.43411 127.543 44.9868 102.92 44.9868 45.605 118.374 3.43411 172.358 21.1198Z" stroke="currentColor" stroke-width="6.86822" stroke-linecap="butt" stroke-linejoin="round" stroke-miterlimit="4" stroke-opacity="1" fill="none" fill-rule="nonzero" transform="matrix(1.00139 0 0 1 3382.2 1145)"/><path d="M87.8788 80.1177 87.8788 21.1541" stroke="currentColor" stroke-width="6.86822" stroke-linecap="butt" stroke-linejoin="round" stroke-miterlimit="4" stroke-opacity="1" fill="none" fill-rule="nonzero" transform="matrix(1.00139 0 0 1 3382.2 1145)"/><path d="M82.0408 251.617 173.629 197.667" stroke="currentColor" stroke-width="6.86822" stroke-linecap="butt" stroke-linejoin="round" stroke-miterlimit="4" stroke-opacity="1" fill="none" fill-rule="nonzero" transform="matrix(1.00139 0 0 1 3382.2 1145)"/><path d="M135.716 274.351 88.7374 303.987" stroke="currentColor" stroke-width="6.86822" stroke-linecap="butt" stroke-linejoin="round" stroke-miterlimit="4" stroke-opacity="1" fill="none" fill-rule="nonzero" transform="matrix(1.00139 0 0 1 3382.2 1145)"/><path d="M83.2771 197.667 44.1283 222.358" stroke="currentColor" stroke-width="6.86822" stroke-linecap="butt" stroke-linejoin="round" stroke-miterlimit="4" stroke-opacity="1" fill="none" fill-rule="nonzero" transform="matrix(1.00139 0 0 1 3382.2 1145)"/><path d="M123.388 62.4321 123.388 102.92 87.8788 127.921 44.9868 102.92" stroke="currentColor" stroke-width="6.86822" stroke-linecap="butt" stroke-linejoin="round" stroke-miterlimit="4" stroke-opacity="1" fill="none" fill-rule="nonzero" transform="matrix(1.00139 0 0 1 3382.2 1145)"/><path d="M57.693 174.418 87.8788 156.286 87.8788 129.466" stroke="currentColor" stroke-width="6.86822" stroke-linecap="butt" stroke-linejoin="round" stroke-miterlimit="4" stroke-opacity="1" fill="none" fill-rule="nonzero" transform="matrix(1.00139 0 0 1 3382.2 1145)"/><path d="M118.099 174.418 87.8788 156.286" stroke="currentColor" stroke-width="6.86822" stroke-linecap="butt" stroke-linejoin="round" stroke-miterlimit="4" stroke-opacity="1" fill="none" fill-rule="nonzero" transform="matrix(1.00139 0 0 1 3382.2 1145)"/></g></g></g></g></g></svg>