<svg width="366" height="325" xmlns="http://www.w3.org/2000/svg" xmlns:xlink="http://www.w3.org/1999/xlink" xml:space="preserve" overflow="hidden"><style>svg { color: #232F3E; } @media (prefers-color-scheme: dark) { svg { color: #FFFFFF; } }</style><defs><clipPath id="clip0"><rect x="2522" y="1179" width="193" height="245"/></clipPath></defs><g transform="translate(-2351 -1141)"><g><g><g><g><g clip-path="url(#clip0)"><path d="M278.383 116.414 332.876 67.5929" stroke="#7B27FF" stroke-width="6.87619" stroke-linecap="butt" stroke-linejoin="round" stroke-miterlimit="4" stroke-opacity="1" fill="none" fill-rule="nonzero" transform="matrix(1 0 0 1.0008 2354 1143.24)"/><path d="M227.464 99.6704 256.585 119.577" stroke="#7B27FF" stroke-width="6.87619" stroke-linecap="butt" stroke-linejoin="round" stroke-miterlimit="4" stroke-opacity="1" fill="none" fill-rule="nonzero" transform="matrix(1 0 0 1.0008 2354 1143.24)"/><path d="M177.853 125.937 204.154 101.561" stroke="#7B27FF" stroke-width="6.87619" stroke-linecap="butt" stroke-linejoin="round" stroke-miterlimit="4" stroke-opacity="1" fill="none" fill-rule="nonzero" transform="matrix(1 0 0 1.0008 2354 1143.24)"/><path d="M149.385 176.718 184.213 176.718 184.213 248.024 149.385 248.024Z" stroke="#7B27FF" stroke-width="6.87619" stroke-linecap="butt" stroke-linejoin="round" stroke-miterlimit="4" stroke-opacity="1" fill="none" fill-rule="nonzero" transform="matrix(1 0 0 1.0008 2354 1143.24)"/><path d="M197.828 139.69 232.656 139.69 232.656 247.99 197.828 247.99Z" stroke="#7B27FF" stroke-width="6.87619" stroke-linecap="butt" stroke-linejoin="round" stroke-miterlimit="4" stroke-opacity="1" fill="none" fill-rule="nonzero" transform="matrix(1 0 0 1.0008 2354 1143.24)"/><path d="M249.537 165.819 284.365 165.819 284.365 248.024 249.537 248.024Z" stroke="#7B27FF" stroke-width="6.87619" stroke-linecap="butt" stroke-linejoin="round" stroke-miterlimit="4" stroke-opacity="1" fill="none" fill-rule="nonzero" transform="matrix(1 0 0 1.0008 2354 1143.24)"/><path d="M300.146 126.625 334.974 126.625 334.974 247.99 300.146 247.99Z" stroke="#7B27FF" stroke-width="6.87619" stroke-linecap="butt" stroke-linejoin="round" stroke-miterlimit="4" stroke-opacity="1" fill="none" fill-rule="nonzero" transform="matrix(1 0 0 1.0008 2354 1143.24)"/><path d="M180.431 136.183C180.431 143.702 174.336 149.798 166.816 149.798 159.297 149.798 153.202 143.702 153.202 136.183 153.202 128.664 159.297 122.568 166.816 122.568 174.336 122.568 180.431 128.664 180.431 136.183Z" stroke="#7B27FF" stroke-width="6.87619" stroke-linecap="butt" stroke-linejoin="round" stroke-miterlimit="4" stroke-opacity="1" fill="none" fill-rule="nonzero" transform="matrix(1 0 0 1.0008 2354 1143.24)"/><path d="M226.467 98.9827C227.98 96.7824 228.84 94.1694 228.84 91.3158 228.84 83.7864 222.754 77.7009 215.225 77.7009 207.695 77.7009 201.61 83.7864 201.61 91.3158 201.61 98.8452 207.695 104.931 215.225 104.931 219.901 104.931 224.026 102.593 226.467 99.0171" stroke="#7B27FF" stroke-width="6.87619" stroke-linecap="butt" stroke-linejoin="round" stroke-miterlimit="4" stroke-opacity="1" fill="none" fill-rule="nonzero" transform="matrix(1 0 0 1.0008 2354 1143.24)"/><path d="M280.583 126.625C280.583 134.144 274.487 140.24 266.968 140.24 259.449 140.24 253.353 134.144 253.353 126.625 253.353 119.106 259.449 113.01 266.968 113.01 274.487 113.01 280.583 119.106 280.583 126.625Z" stroke="#7B27FF" stroke-width="6.87619" stroke-linecap="butt" stroke-linejoin="round" stroke-miterlimit="4" stroke-opacity="1" fill="none" fill-rule="nonzero" transform="matrix(1 0 0 1.0008 2354 1143.24)"/></g><path d="M304.306 65.8739 334.767 65.8739 334.767 96.3354" stroke="#7B27FF" stroke-width="6.87619" stroke-linecap="butt" stroke-linejoin="round" stroke-miterlimit="4" stroke-opacity="1" fill="none" fill-rule="nonzero" transform="matrix(1 0 0 1.0008 2354 1143.24)"/><path d="M168.81 20.7661 168.81 297.911 115.761 315.823 44.6265 273.947 44.6265 217.975 3.43809 193.702 3.43809 124.94 44.1451 100.839 44.1451 44.6952 115.967 3.43809 168.81 20.7661Z" stroke="currentColor" stroke-width="6.87619" stroke-linecap="butt" stroke-linejoin="round" stroke-miterlimit="4" stroke-opacity="1" fill="none" fill-rule="nonzero" transform="matrix(1 0 0 1.0008 2354 1143.24)"/><path d="M86.1243 78.5261 86.1243 20.7661" stroke="currentColor" stroke-width="6.87619" stroke-linecap="butt" stroke-linejoin="round" stroke-miterlimit="4" stroke-opacity="1" fill="none" fill-rule="nonzero" transform="matrix(1 0 0 1.0008 2354 1143.24)"/><path d="M80.3827 246.374 170.014 193.565" stroke="currentColor" stroke-width="6.87619" stroke-linecap="butt" stroke-linejoin="round" stroke-miterlimit="4" stroke-opacity="1" fill="none" fill-rule="nonzero" transform="matrix(1 0 0 1.0008 2354 1143.24)"/><path d="M132.917 268.653 86.9494 297.636" stroke="currentColor" stroke-width="6.87619" stroke-linecap="butt" stroke-linejoin="round" stroke-miterlimit="4" stroke-opacity="1" fill="none" fill-rule="nonzero" transform="matrix(1 0 0 1.0008 2354 1143.24)"/><path d="M81.586 193.565 43.2512 217.735" stroke="currentColor" stroke-width="6.87619" stroke-linecap="butt" stroke-linejoin="round" stroke-miterlimit="4" stroke-opacity="1" fill="none" fill-rule="nonzero" transform="matrix(1 0 0 1.0008 2354 1143.24)"/><path d="M120.883 61.1981 120.883 100.839 86.1243 125.284 44.1451 100.839" stroke="currentColor" stroke-width="6.87619" stroke-linecap="butt" stroke-linejoin="round" stroke-miterlimit="4" stroke-opacity="1" fill="none" fill-rule="nonzero" transform="matrix(1 0 0 1.0008 2354 1143.24)"/><path d="M56.5223 170.805 86.1243 153.064 86.1243 126.831" stroke="currentColor" stroke-width="6.87619" stroke-linecap="butt" stroke-linejoin="round" stroke-miterlimit="4" stroke-opacity="1" fill="none" fill-rule="nonzero" transform="matrix(1 0 0 1.0008 2354 1143.24)"/><path d="M115.692 170.805 86.1243 153.064" stroke="currentColor" stroke-width="6.87619" stroke-linecap="butt" stroke-linejoin="round" stroke-miterlimit="4" stroke-opacity="1" fill="none" fill-rule="nonzero" transform="matrix(1 0 0 1.0008 2354 1143.24)"/></g></g></g></g></g></svg>